# Blender 4.4.3
# www.blender.org
mtllib basen pod kopula.mtl
o Cylinder
v 2.013315 -0.663188 -0.545219
v 2.013315 0.556813 -0.545219
v 2.312084 -0.663188 0.599228
v 2.312084 0.556813 0.599228
v 1.998603 -0.663188 1.739734
v 1.998603 0.556813 1.739734
v 1.156868 -0.663188 2.570699
v 1.156868 0.556813 2.570699
v 0.012420 -0.663188 2.869469
v 0.012420 0.556813 2.869469
v -1.128085 -0.663188 2.555988
v -1.128085 0.556813 2.555988
v -1.959051 -0.663188 1.714252
v -1.959051 0.556813 1.714252
v -2.257821 -0.663188 0.569805
v -2.257821 0.556813 0.569805
v -1.944340 -0.663188 -0.570701
v -1.944340 0.556813 -0.570701
v -1.102604 -0.663188 -1.401666
v -1.102604 0.556813 -1.401666
v 0.041843 -0.663188 -1.700436
v 0.041843 0.556813 -1.700436
v 1.182349 -0.663188 -1.386955
v 1.182349 0.556813 -1.386955
v 2.312084 0.556800 0.599228
v 2.013315 0.556800 -0.545219
v 1.998603 0.556800 1.739734
v 1.156868 0.556800 2.570699
v 0.012420 0.556800 2.869469
v -1.128085 0.556800 2.555988
v -1.959051 0.556800 1.714252
v -2.257821 0.556800 0.569805
v -1.944340 0.556800 -0.570701
v -1.102604 0.556800 -1.401666
v 0.041843 0.556800 -1.700436
v 1.182349 0.556800 -1.386955
vn 0.9676 -0.0000 -0.2526
vn 0.9642 -0.0000 0.2650
vn 0.7025 -0.0000 0.7116
vn 0.2526 -0.0000 0.9676
vn -0.2650 -0.0000 0.9642
vn -0.7116 -0.0000 0.7025
vn -0.9676 -0.0000 0.2526
vn -0.9642 -0.0000 -0.2650
vn -0.7025 -0.0000 -0.7116
vn -0.2526 -0.0000 -0.9676
vn 0.7027 -0.0000 0.7115
vn 0.2650 -0.0000 -0.9642
vn 0.7116 -0.0000 -0.7025
vn -0.0000 -1.0000 -0.0000
vn 0.9645 -0.0000 0.2642
vn 0.9677 -0.0000 -0.2522
vn 0.7114 -0.0000 -0.7028
vn 0.2659 -0.0000 -0.9640
vn -0.2524 -0.0000 -0.9676
vn -0.7114 -0.0000 0.7028
vn -0.9677 -0.0000 0.2522
vn -0.7027 -0.0000 -0.7115
vn -0.2659 -0.0000 0.9640
vn -0.9645 -0.0000 -0.2642
vn 0.2524 -0.0000 0.9676
vt 1.000000 0.500000
vt 1.000000 1.000000
vt 0.916667 1.000000
vt 0.916667 0.500000
vt 0.833333 1.000000
vt 0.833333 0.500000
vt 0.750000 1.000000
vt 0.750000 0.500000
vt 0.666667 1.000000
vt 0.666667 0.500000
vt 0.583333 1.000000
vt 0.583333 0.500000
vt 0.500000 1.000000
vt 0.500000 0.500000
vt 0.416667 1.000000
vt 0.416667 0.500000
vt 0.333333 1.000000
vt 0.333333 0.500000
vt 0.250000 1.000000
vt 0.250000 0.500000
vt 0.166667 1.000000
vt 0.166667 0.500000
vt 0.083333 1.000000
vt 0.083333 0.500000
vt 0.000000 1.000000
vt 0.000000 0.500000
vt 0.750000 0.490000
vt 0.870000 0.457846
vt 0.957846 0.370000
vt 0.990000 0.250000
vt 0.957846 0.130000
vt 0.870000 0.042154
vt 0.750000 0.010000
vt 0.630000 0.042154
vt 0.542154 0.130000
vt 0.510000 0.250000
vt 0.542154 0.370000
vt 0.630000 0.457846
s 0
f 1/1/1 2/2/1 4/3/1 3/4/1
f 3/4/2 4/3/2 6/5/2 5/6/2
f 5/6/3 6/5/3 8/7/3 7/8/3
f 7/8/4 8/7/4 10/9/4 9/10/4
f 9/10/5 10/9/5 12/11/5 11/12/5
f 11/12/6 12/11/6 14/13/6 13/14/6
f 13/14/7 14/13/7 16/15/7 15/16/7
f 15/16/8 16/15/8 18/17/8 17/18/8
f 17/18/9 18/17/9 20/19/9 19/20/9
f 19/20/10 20/19/10 22/21/10 21/22/10
f 20/19/11 18/17/11 33/17/11 34/19/11
f 21/22/12 22/21/12 24/23/12 23/24/12
f 23/24/13 24/23/13 2/25/13 1/26/13
f 1/27/14 3/28/14 5/29/14 7/30/14 9/31/14 11/32/14 13/33/14 15/34/14 17/35/14 19/36/14 21/37/14 23/38/14
f 18/17/15 16/15/15 32/15/15 33/17/15
f 16/15/16 14/13/16 31/13/16 32/15/16
f 14/13/17 12/11/17 30/11/17 31/13/17
f 12/11/18 10/9/18 29/9/18 30/11/18
f 10/9/19 8/7/19 28/7/19 29/9/19
f 2/25/20 24/23/20 36/23/20 26/25/20
f 4/3/21 2/2/21 26/2/21 25/3/21
f 8/7/22 6/5/22 27/5/22 28/7/22
f 24/23/23 22/21/23 35/21/23 36/23/23
f 6/5/24 4/3/24 25/3/24 27/5/24
f 22/21/25 20/19/25 34/19/25 35/21/25
o Octohedron_1_2_Class_II_Cone_D108_2V_R4_beams_18x18_frame
v 3.533032 2.140263 0.036683
v 3.520751 2.145968 0.037262
v 3.506435 2.131637 0.037937
v 3.518716 2.125931 0.037358
v 3.529141 2.136969 0.024124
v 3.514825 2.122636 0.024799
v 0.598930 2.577822 -2.136881
v 0.617129 2.571234 -2.133075
v 0.617681 2.554685 -2.121386
v 0.599481 2.561273 -2.125192
v 0.608739 2.580234 -2.119938
v 0.609291 2.563684 -2.108249
v 0.598930 2.577822 -2.136881
v 0.607620 2.559822 -2.143662
v 0.608220 2.541822 -2.130948
v 0.599530 2.559822 -2.124167
v 0.617210 2.568822 -2.131372
v 0.617809 2.550822 -2.118658
v 3.861289 -0.688164 -2.290771
v 3.852598 -0.670164 -2.283990
v 3.835218 -0.670164 -2.270428
v 3.843908 -0.688164 -2.277209
v 3.843009 -0.679164 -2.296279
v 3.825628 -0.679164 -2.282718
v 3.533032 2.140263 0.036683
v 3.529141 2.136969 0.024124
v 3.514825 2.122636 0.024799
v 3.518716 2.125931 0.037358
v 3.538731 2.127968 0.036414
v 3.524415 2.113636 0.037089
v 3.861289 -0.688164 -2.290771
v 3.864516 -0.679164 -2.273517
v 3.848537 -0.679164 -2.261048
v 3.845309 -0.688164 -2.278302
v 3.854927 -0.670164 -2.285807
v 3.838947 -0.670164 -2.273338
v -2.117539 2.140263 0.303227
v -2.114848 2.136969 0.290358
v -2.100532 2.122637 0.289683
v -2.103223 2.125931 0.302552
v -2.105258 2.145969 0.302648
v -2.090942 2.131637 0.301973
v 0.598930 2.577822 -2.136881
v 0.590759 2.580234 -2.119089
v 0.591311 2.563684 -2.107400
v 0.599481 2.561273 -2.125192
v 0.581169 2.571234 -2.131379
v 0.581721 2.554685 -2.119690
v 0.598930 2.577822 -2.136881
v 0.608819 2.577822 -2.118234
v 0.609419 2.559822 -2.105520
v 0.599530 2.559822 -2.124167
v 0.590840 2.577822 -2.117386
v 0.591439 2.559822 -2.104672
v 0.816563 2.577822 2.476791
v 0.806673 2.577822 2.458144
v 0.806074 2.559822 2.445431
v 0.815963 2.559822 2.464077
v 0.824653 2.577822 2.457296
v 0.824054 2.559822 2.444582
v -2.117539 2.140263 0.303227
v -2.105258 2.145969 0.302648
v -2.090942 2.131637 0.301973
v -2.103223 2.125931 0.302552
v -2.113649 2.136969 0.315786
v -2.099333 2.122637 0.315111
v 0.816563 2.577822 2.476791
v 0.798363 2.571234 2.472986
v 0.797812 2.554685 2.461296
v 0.816011 2.561273 2.465102
v 0.806754 2.580234 2.459848
v 0.806202 2.563684 2.448159
v 0.519270 -0.688164 -3.825602
v 0.528480 -0.679164 -3.821373
v 0.529435 -0.679164 -3.801126
v 0.520225 -0.688164 -3.805356
v 0.510500 -0.679164 -3.820524
v 0.511455 -0.679164 -3.800278
v 0.598930 2.577822 -2.136881
v 0.589560 2.562234 -2.144517
v 0.590111 2.545684 -2.132828
v 0.599481 2.561273 -2.125192
v 0.607540 2.562234 -2.145365
v 0.608091 2.545684 -2.133676
v 0.598930 2.577822 -2.136881
v 0.581250 2.568822 -2.129676
v 0.581849 2.550822 -2.116962
v 0.599530 2.559822 -2.124167
v 0.589640 2.559822 -2.142814
v 0.590240 2.541822 -2.130100
v -2.663429 -0.688164 -1.982991
v -2.645749 -0.679164 -1.990196
v -2.627169 -0.679164 -1.978331
v -2.644849 -0.688164 -1.971125
v -2.654140 -0.670164 -1.977058
v -2.635559 -0.670164 -1.965193
v 0.519270 -0.688164 -3.825602
v 0.510500 -0.679164 -3.820524
v 0.511455 -0.679164 -3.800278
v 0.520225 -0.688164 -3.805356
v 0.510500 -0.697164 -3.820524
v 0.511455 -0.697164 -3.800278
v -2.663429 -0.688164 -1.982991
v -2.648238 -0.697164 -1.991786
v -2.631156 -0.697164 -1.980877
v -2.646347 -0.688164 -1.972082
v -2.648238 -0.679164 -1.991786
v -2.631156 -0.679164 -1.980877
v 3.861289 -0.688164 -2.290771
v 3.862188 -0.697164 -2.271700
v 3.844808 -0.697164 -2.258138
v 3.843908 -0.688164 -2.277209
v 3.862188 -0.679164 -2.271700
v 3.844808 -0.679164 -2.258138
v 4.078921 -0.688164 2.322901
v 4.078022 -0.679164 2.303830
v 4.059442 -0.679164 2.291965
v 4.060341 -0.688164 2.311035
v 4.078022 -0.697164 2.303830
v 4.059442 -0.697164 2.291965
v 3.533032 2.140263 0.036683
v 3.538731 2.127968 0.036414
v 3.524415 2.113636 0.037089
v 3.518716 2.125931 0.037358
v 3.530341 2.136969 0.049552
v 3.516025 2.122636 0.050227
v 4.078921 -0.688164 2.322901
v 4.072121 -0.670164 2.318558
v 4.055038 -0.670164 2.307649
v 4.061839 -0.688164 2.311992
v 4.080511 -0.679164 2.305420
v 4.063429 -0.679164 2.294511
v 0.519270 -0.688164 -3.825602
v 0.528480 -0.697164 -3.821373
v 0.529435 -0.697164 -3.801126
v 0.520225 -0.688164 -3.805356
v 0.528480 -0.679164 -3.821373
v 0.529435 -0.679164 -3.801126
v 3.861289 -0.688164 -2.290771
v 3.845337 -0.679164 -2.298096
v 3.829357 -0.679164 -2.285628
v 3.845309 -0.688164 -2.278302
v 3.845337 -0.697164 -2.298096
v 3.829357 -0.697164 -2.285628
v -2.117539 2.140263 0.303227
v -2.123239 2.127969 0.303496
v -2.108922 2.113637 0.302821
v -2.103223 2.125931 0.302552
v -2.114848 2.136969 0.290358
v -2.100532 2.122637 0.289683
v -2.663429 -0.688164 -1.982991
v -2.656629 -0.670164 -1.978648
v -2.639546 -0.670164 -1.967739
v -2.646347 -0.688164 -1.972082
v -2.665019 -0.679164 -1.965510
v -2.647936 -0.679164 -1.954601
v -2.663429 -0.688164 -1.982991
v -2.662529 -0.679164 -1.963920
v -2.643950 -0.679164 -1.952055
v -2.644849 -0.688164 -1.971125
v -2.662529 -0.697164 -1.963920
v -2.643950 -0.697164 -1.952055
v -2.445796 -0.688164 2.630681
v -2.446696 -0.697164 2.611610
v -2.429315 -0.697164 2.598048
v -2.428416 -0.688164 2.617119
v -2.446696 -0.679164 2.611610
v -2.429315 -0.679164 2.598048
v 0.816563 2.577822 2.476791
v 0.807873 2.559822 2.483572
v 0.807273 2.541822 2.470858
v 0.815963 2.559822 2.464077
v 0.798283 2.568822 2.471282
v 0.797683 2.550822 2.458568
v -2.445796 -0.688164 2.630681
v -2.437106 -0.670164 2.623900
v -2.419725 -0.670164 2.610338
v -2.428416 -0.688164 2.617119
v -2.427516 -0.679164 2.636189
v -2.410136 -0.679164 2.622628
v -2.117539 2.140263 0.303227
v -2.113649 2.136969 0.315786
v -2.099333 2.122637 0.315111
v -2.103223 2.125931 0.302552
v -2.123239 2.127969 0.303496
v -2.108922 2.113637 0.302821
v -2.445796 -0.688164 2.630681
v -2.449024 -0.679164 2.613427
v -2.433044 -0.679164 2.600958
v -2.429817 -0.688164 2.618212
v -2.439435 -0.670164 2.625717
v -2.423455 -0.670164 2.613248
v 3.533032 2.140263 0.036683
v 3.530341 2.136969 0.049552
v 3.516025 2.122636 0.050227
v 3.518716 2.125931 0.037358
v 3.520751 2.145968 0.037262
v 3.506435 2.131637 0.037937
v 0.816563 2.577822 2.476791
v 0.824734 2.580234 2.458999
v 0.824182 2.563684 2.447310
v 0.816011 2.561273 2.465102
v 0.834323 2.571234 2.471289
v 0.833772 2.554685 2.459600
v 0.896222 -0.688164 4.165512
v 0.887012 -0.679164 4.161283
v 0.886057 -0.679164 4.141037
v 0.895267 -0.688164 4.145266
v 0.904992 -0.679164 4.160434
v 0.904037 -0.679164 4.140188
v 0.816563 2.577822 2.476791
v 0.825933 2.562234 2.484427
v 0.825382 2.545684 2.472738
v 0.816011 2.561273 2.465102
v 0.807953 2.562234 2.485275
v 0.807402 2.545684 2.473586
v 0.816563 2.577822 2.476791
v 0.834243 2.568822 2.469586
v 0.833643 2.550822 2.456872
v 0.815963 2.559822 2.464077
v 0.825853 2.559822 2.482724
v 0.825253 2.541822 2.470010
v 4.078921 -0.688164 2.322901
v 4.061241 -0.679164 2.330106
v 4.042662 -0.679164 2.318241
v 4.060341 -0.688164 2.311035
v 4.069632 -0.670164 2.316968
v 4.051052 -0.670164 2.305103
v 0.896222 -0.688164 4.165512
v 0.904992 -0.679164 4.160434
v 0.904037 -0.679164 4.140188
v 0.895267 -0.688164 4.145266
v 0.904992 -0.697164 4.160434
v 0.904037 -0.697164 4.140188
v 4.078921 -0.688164 2.322901
v 4.063730 -0.697164 2.331696
v 4.046648 -0.697164 2.320787
v 4.061839 -0.688164 2.311992
v 4.063730 -0.679164 2.331696
v 4.046648 -0.679164 2.320787
v 0.896222 -0.688164 4.165512
v 0.887012 -0.697164 4.161283
v 0.886057 -0.697164 4.141037
v 0.895267 -0.688164 4.145266
v 0.887012 -0.679164 4.161283
v 0.886057 -0.679164 4.141037
v -2.445796 -0.688164 2.630681
v -2.429845 -0.679164 2.638006
v -2.413865 -0.679164 2.625538
v -2.429817 -0.688164 2.618212
v -2.429845 -0.697164 2.638006
v -2.413865 -0.697164 2.625538
vn 0.0471 -0.0000 0.9989
vn 0.7063 -0.7071 -0.0333
vn -0.0385 -0.5774 -0.8156
vn -0.8458 0.2887 0.4486
vn -0.3824 -0.8578 0.3435
vn -0.4661 0.5000 0.7299
vn 0.4661 -0.5000 -0.7299
vn 0.3823 0.8578 -0.3435
vn -0.8843 -0.2887 -0.3670
vn 0.0385 0.5773 0.8156
vn 0.6152 -0.0000 0.7884
vn -0.3076 -0.8660 -0.3942
vn -0.4661 -0.5000 0.7299
vn -0.5328 -0.5000 -0.6828
vn 0.5328 0.5000 0.6828
vn 0.4661 0.5000 -0.7299
vn -0.7063 0.7071 0.0333
vn 0.3076 -0.8660 0.3942
vn -0.6152 -0.0000 -0.7884
vn -0.8415 -0.3981 0.3651
vn -0.5328 0.5000 -0.6828
vn 0.5328 -0.5000 0.6828
vn 0.8415 0.3981 -0.3651
vn -0.7063 -0.7071 0.0333
vn 0.8843 0.2887 0.3670
vn 0.4130 -0.8578 0.3059
vn -0.4130 0.8578 -0.3059
vn 0.8458 -0.2887 -0.4486
vn -0.8458 -0.2887 0.4486
vn 0.8843 -0.2887 0.3670
vn -0.0000 -1.0000 -0.0000
vn 0.9989 -0.0000 -0.0471
vn -0.9989 -0.0000 0.0471
vn -0.0000 1.0000 -0.0000
vn -0.0471 -0.0000 -0.9989
vn 0.0385 -0.5774 0.8156
vn 0.8458 0.2887 -0.4486
vn 0.3824 -0.8578 -0.3435
vn -0.3823 0.8578 0.3435
vn 0.0418 -0.4597 0.8871
vn -0.0418 0.4597 -0.8871
vn 0.2691 -0.8660 -0.4214
vn -0.5382 -0.0000 0.8428
vn 0.7063 0.7071 -0.0333
vn -0.2691 -0.8660 0.4214
vn -0.2691 0.8660 0.4214
vn 0.5010 -0.0000 0.8654
vn -0.5010 -0.0000 -0.8654
vn -0.3076 0.8660 -0.3942
vn -0.8722 -0.3981 -0.2843
vn 0.8722 0.3981 0.2843
vn 0.3076 0.8660 0.3942
vn -0.4173 -0.0000 0.9087
vn 0.4173 -0.0000 -0.9087
vn 0.5382 -0.0000 -0.8428
vn 0.8722 -0.3981 0.2843
vn -0.8722 0.3981 -0.2843
vn 0.2691 0.8660 -0.4214
vn -0.0385 0.5773 -0.8156
vn 0.8415 -0.3981 -0.3651
vn -0.8415 0.3981 0.3651
vn -0.8843 0.2887 -0.3670
vn -0.4130 -0.8578 -0.3059
vn 0.4130 0.8578 0.3059
vn -0.0418 -0.4597 -0.8871
vn 0.0418 0.4597 0.8871
s 0
f 37//26 38//26 39//26 40//26
f 41//27 37//27 40//27 42//27
f 43//28 44//28 45//28 46//28
f 47//29 43//29 46//29 48//29
f 40//30 39//30 48//30 46//30 45//30 42//30
f 38//31 47//31 48//31 39//31
f 41//32 42//32 45//32 44//32
f 37//33 41//33 44//33 43//33 47//33 38//33
f 49//34 50//34 51//34 52//34
f 53//35 49//35 52//35 54//35
f 55//36 56//36 57//36 58//36
f 59//37 55//37 58//37 60//37
f 52//38 51//38 60//38 58//38 57//38 54//38
f 50//39 59//39 60//39 51//39
f 53//40 54//40 57//40 56//40
f 49//41 53//41 56//41 55//41 59//41 50//41
f 61//42 62//42 63//42 64//42
f 65//26 61//26 64//26 66//26
f 67//43 68//43 69//43 70//43
f 71//44 67//44 70//44 72//44
f 64//45 63//45 72//45 70//45 69//45 66//45
f 62//46 71//46 72//46 63//46
f 65//47 66//47 69//47 68//47
f 61//48 65//48 68//48 67//48 71//48 62//48
f 73//49 74//49 75//49 76//49
f 77//26 73//26 76//26 78//26
f 79//50 80//50 81//50 82//50
f 83//28 79//28 82//28 84//28
f 76//51 75//51 84//51 82//51 81//51 78//51
f 74//39 83//39 84//39 75//39
f 77//40 78//40 81//40 80//40
f 73//52 77//52 80//52 79//52 83//52 74//52
f 85//53 86//53 87//53 88//53
f 89//34 85//34 88//34 90//34
f 91//54 92//54 93//54 94//54
f 95//55 91//55 94//55 96//55
f 88//56 87//56 96//56 94//56 93//56 90//56
f 86//57 95//57 96//57 87//57
f 89//58 90//58 93//58 92//58
f 85//59 89//59 92//59 91//59 95//59 86//59
f 97//60 98//60 99//60 100//60
f 101//49 97//49 100//49 102//49
f 103//61 104//61 105//61 106//61
f 107//62 103//62 106//62 108//62
f 100//63 99//63 108//63 106//63 105//63 102//63
f 98//41 107//41 108//41 99//41
f 101//38 102//38 105//38 104//38
f 97//64 101//64 104//64 103//64 107//64 98//64
f 109//27 110//27 111//27 112//27
f 113//49 109//49 112//49 114//49
f 115//29 116//29 117//29 118//29
f 119//50 115//50 118//50 120//50
f 112//65 111//65 120//65 118//65 117//65 114//65
f 110//57 119//57 120//57 111//57
f 113//58 114//58 117//58 116//58
f 109//66 113//66 116//66 115//66 119//66 110//66
f 121//35 122//35 123//35 124//35
f 125//53 121//53 124//53 126//53
f 127//67 128//67 129//67 130//67
f 131//68 127//68 130//68 132//68
f 124//47 123//47 132//47 130//47 129//47 126//47
f 122//31 131//31 132//31 123//31
f 125//32 126//32 129//32 128//32
f 121//46 125//46 128//46 127//46 131//46 122//46
f 133//69 134//69 135//69 136//69
f 137//27 133//27 136//27 138//27
f 139//70 140//70 141//70 142//70
f 143//71 139//71 142//71 144//71
f 136//72 135//72 144//72 142//72 141//72 138//72
f 134//59 143//59 144//59 135//59
f 137//56 138//56 141//56 140//56
f 133//73 137//73 140//73 139//73 143//73 134//73
f 145//37 146//37 147//37 148//37
f 149//74 145//74 148//74 150//74
f 151//71 152//71 153//71 154//71
f 155//70 151//70 154//70 156//70
f 148//58 147//58 156//58 154//58 153//58 150//58
f 146//56 155//56 156//56 147//56
f 149//59 150//59 153//59 152//59
f 145//57 149//57 152//57 151//57 155//57 146//57
f 157//60 158//60 159//60 160//60
f 161//42 157//42 160//42 162//42
f 163//68 164//68 165//68 166//68
f 167//67 163//67 166//67 168//67
f 160//75 159//75 168//75 166//75 165//75 162//75
f 158//32 167//32 168//32 159//32
f 161//31 162//31 165//31 164//31
f 157//76 161//76 164//76 163//76 167//76 158//76
f 169//49 170//49 171//49 172//49
f 173//42 169//42 172//42 174//42
f 175//77 176//77 177//77 178//77
f 179//43 175//43 178//43 180//43
f 172//78 171//78 180//78 178//78 177//78 174//78
f 170//56 179//56 180//56 171//56
f 173//59 174//59 177//59 176//59
f 169//79 173//79 176//79 175//79 179//79 170//79
f 181//26 182//26 183//26 184//26
f 185//69 181//69 184//69 186//69
f 187//80 188//80 189//80 190//80
f 191//70 187//70 190//70 192//70
f 184//81 183//81 192//81 190//81 189//81 186//81
f 182//38 191//38 192//38 183//38
f 185//41 186//41 189//41 188//41
f 181//82 185//82 188//82 187//82 191//82 182//82
f 193//83 194//83 195//83 196//83
f 197//67 193//67 196//67 198//67
f 199//43 200//43 201//43 202//43
f 203//77 199//77 202//77 204//77
f 196//57 195//57 204//57 202//57 201//57 198//57
f 194//59 203//59 204//59 195//59
f 197//56 198//56 201//56 200//56
f 193//58 197//58 200//58 199//58 203//58 194//58
f 205//55 206//55 207//55 208//55
f 209//84 205//84 208//84 210//84
f 211//44 212//44 213//44 214//44
f 215//43 211//43 214//43 216//43
f 208//32 207//32 216//32 214//32 213//32 210//32
f 206//47 215//47 216//47 207//47
f 209//46 210//46 213//46 212//46
f 205//31 209//31 212//31 211//31 215//31 206//31
f 217//69 218//69 219//69 220//69
f 221//60 217//60 220//60 222//60
f 223//37 224//37 225//37 226//37
f 227//36 223//36 226//36 228//36
f 220//85 219//85 228//85 226//85 225//85 222//85
f 218//40 227//40 228//40 219//40
f 221//39 222//39 225//39 224//39
f 217//86 221//86 224//86 223//86 227//86 218//86
f 229//27 230//27 231//27 232//27
f 233//60 229//60 232//60 234//60
f 235//87 236//87 237//87 238//87
f 239//61 235//61 238//61 240//61
f 232//88 231//88 240//88 238//88 237//88 234//88
f 230//47 239//47 240//47 231//47
f 233//46 234//46 237//46 236//46
f 229//89 233//89 236//89 235//89 239//89 230//89
f 241//49 242//49 243//49 244//49
f 245//27 241//27 244//27 246//27
f 247//62 248//62 249//62 250//62
f 251//87 247//87 250//87 252//87
f 244//90 243//90 252//90 250//90 249//90 246//90
f 242//58 251//58 252//58 243//58
f 245//57 246//57 249//57 248//57
f 241//91 245//91 248//91 247//91 251//91 242//91
f 253//84 254//84 255//84 256//84
f 257//54 253//54 256//54 258//54
f 259//70 260//70 261//70 262//70
f 263//80 259//80 262//80 264//80
f 256//39 255//39 264//39 262//39 261//39 258//39
f 254//41 263//41 264//41 255//41
f 257//38 258//38 261//38 260//38
f 253//40 257//40 260//40 259//40 263//40 254//40
f 265//42 266//42 267//42 268//42
f 269//49 265//49 268//49 270//49
f 271//67 272//67 273//67 274//67
f 275//83 271//83 274//83 276//83
f 268//73 267//73 276//73 274//73 273//73 270//73
f 266//59 275//59 276//59 267//59
f 269//56 270//56 273//56 272//56
f 265//72 269//72 272//72 271//72 275//72 266//72
f 277//27 278//27 279//27 280//27
f 281//69 277//69 280//69 282//69
f 283//74 284//74 285//74 286//74
f 287//37 283//37 286//37 288//37
f 280//79 279//79 288//79 286//79 285//79 282//79
f 278//56 287//56 288//56 279//56
f 281//59 282//59 285//59 284//59
f 277//78 281//78 284//78 283//78 287//78 278//78
